<?xml version="1.0" encoding="UTF-8"?>
<svg width="79px" height="79px" viewBox="0 0 79 79" version="1.1" xmlns="http://www.w3.org/2000/svg" xmlns:xlink="http://www.w3.org/1999/xlink">
    <!-- Generator: sketchtool 63.1 (101010) - https://sketch.com -->
    <title>D6B8D681-0986-4384-8B0B-227D49880486</title>
    <desc>Created with sketchtool.</desc>
    <g id="Beta-1-version" stroke="none" stroke-width="1" fill="none" fill-rule="evenodd">
        <g id="03.Section_Intro" transform="translate(-1402.000000, -903.000000)" fill-rule="nonzero">
            <g id="360NAV" transform="translate(1336.000000, 836.000000)">
                <g id="Navigation-Copy" transform="translate(6.357143, 6.000000)">
                    <g id="global-icon/360" transform="translate(60.142857, 61.000000)">
                        <g id="Touch-to-start">
                            <circle id="Oval" fill="#000000" opacity="0.65" cx="39.0564103" cy="39.0564103" r="39.0564103"></circle>
                            <path d="M39.0974359,74.4 C36.4417653,74.338443 33.8926263,73.3434798 31.8974359,71.5897436 C29.4466526,69.4684167 27.4509686,66.8726319 26.0307692,63.9589744 C24.223687,60.3711006 22.8861907,56.5654409 22.0512821,52.6358974 C21.0759737,48.0717329 20.5945708,43.4158788 20.6153846,38.7487179 C20.5946125,34.0883406 21.0760231,29.4392893 22.0512821,24.8820513 C22.8828722,20.9515771 24.2205159,17.1454981 26.0307692,13.5589744 C27.4455844,10.641986 29.4420499,8.04518468 31.8974359,5.92820513 C33.8926263,4.17446888 36.4417653,3.17950576 39.0974359,3.11794872 C41.7538076,3.17599843 44.3041057,4.17141391 46.2974359,5.92820513 C48.7593802,8.04398313 50.7627908,10.6407383 52.1846154,13.5589744 C53.9968899,17.1426338 55.328052,20.9498952 56.1435897,24.8820513 C57.1259,29.4385153 57.6141906,34.0875919 57.6003023,38.7487179 C57.6142315,43.4166265 57.1259488,48.0725058 56.1435897,52.6358974 C55.3246068,56.5670977 53.9935997,60.3739159 52.1846154,63.9589744 C50.757417,66.8738731 48.7547886,69.4696144 46.2974359,71.5897436 C44.3041057,73.3465348 41.7538076,74.3419503 39.0974359,74.4 L39.0974359,74.4 Z M39.0974359,5.18974359 C29.4974359,5.18974359 21.6820513,20.2461538 21.6820513,38.7487179 C21.6820513,57.2512821 29.4974359,72.3282051 39.0974359,72.3282051 C48.6974359,72.3282051 56.5333333,57.2717949 56.5333333,38.7487179 C56.5333333,20.225641 48.7179487,5.18974359 39.0974359,5.18974359 Z" id="Shape" fill="#FFFFFF"></path>
                            <path d="M3.46666667,38.7487179 C3.53170232,36.0937452 4.5262184,33.5457515 6.27692308,31.5487179 C8.39509718,29.0945958 10.9916183,27.0983456 13.9076923,25.6820513 C17.4900272,23.8666655 21.2977105,22.535356 25.2307692,21.7230769 C29.7872332,20.7407666 34.4363098,20.2524761 39.0974359,20.2663176 C43.7586188,20.2513578 48.4078153,20.739661 52.9641026,21.7230769 C56.9027849,22.5387297 60.7168122,23.869846 64.3076923,25.6820513 C67.2169029,27.1094209 69.8113482,29.104075 71.9384615,31.5487179 C73.675745,33.5522508 74.6620144,36.0976962 74.7282051,38.7487179 C74.6688754,41.4011067 73.6817358,43.9487978 71.9384615,45.9487179 C69.8183324,48.4060707 67.2225911,50.4086991 64.3076923,51.8358974 C60.7168122,53.6481027 56.9027849,54.979219 52.9641026,55.7948718 C48.4078153,56.7782877 43.7586188,57.2665909 39.0974359,57.2516311 C34.4363098,57.2654727 29.7872332,56.7771821 25.2307692,55.7948718 C21.2977105,54.9825928 17.4900272,53.6512832 13.9076923,51.8358974 C10.9860582,50.4195567 8.388259,48.4153407 6.27692308,45.9487179 C4.52013186,43.9553878 3.52471637,41.4050897 3.46666667,38.7487179 Z M72.6769231,38.7487179 C72.6769231,29.1487179 57.6205128,21.3333333 39.0974359,21.3333333 C20.574359,21.3333333 5.53846154,29.1487179 5.53846154,38.7487179 C5.53846154,48.3487179 20.5948718,56.1846154 39.0974359,56.1846154 C57.6,56.1846154 72.6769231,48.3692308 72.6769231,38.7487179 Z" id="Shape" fill="#FFFFFF"></path>
                            <path d="M26.3384615,41.6820513 C27.1176632,42.0951119 27.9802203,42.3265297 28.8615385,42.3589744 C30.174359,42.3589744 30.9128205,41.7230769 30.9128205,40.9025641 C30.9128205,40.0820513 29.8666667,39.3641026 28.7384615,39.3641026 L27.7128205,39.3641026 L27.7128205,37.5384615 L28.7179487,37.5384615 C29.5589744,37.5384615 30.6461538,37.2102564 30.6461538,36.2871795 C30.6461538,35.3641026 30.1128205,35.1589744 29.0461538,35.1589744 C28.2455786,35.1923671 27.4647212,35.4174791 26.7692308,35.8153846 L26.2564103,33.9692308 C27.2918975,33.4218773 28.4494802,33.1465985 29.6205128,33.1692308 C31.9179487,33.1692308 33.2102564,34.3794872 33.2102564,35.8564103 C33.1997373,37.0733176 32.3481171,38.1208104 31.1589744,38.3794872 L31.1589744,38.3794872 C32.4774092,38.5711556 33.4605028,39.6934483 33.4769231,41.025641 C33.4769231,42.9333333 31.7948718,44.3282051 29.0461538,44.3282051 C27.9254527,44.354361 26.8167258,44.0930686 25.825641,43.5692308 L26.3384615,41.6820513 Z" id="Path" fill="#FFFFFF"></path>
                            <path d="M42.0512821,35.1384615 C41.7236907,35.1100743 41.394258,35.1100743 41.0666667,35.1384615 C39.4269444,35.0558299 37.9541177,36.1347611 37.5384615,37.7230769 L37.5384615,37.7230769 C38.1744655,37.1456656 39.0205143,36.8562278 39.8769231,36.9230769 C40.8039903,36.9036178 41.6965311,37.2747945 42.3364183,37.9458957 C42.9763055,38.6169969 43.3045838,39.5261914 43.2410256,40.4512821 C43.2527465,41.5082896 42.8323539,42.5242499 42.0771856,43.2639275 C41.3220172,44.0036052 40.2975633,44.4028536 39.2410256,44.3692308 C38.0175001,44.3945739 36.8425327,43.8907886 36.01737,42.987039 C35.1922073,42.0832893 34.7970945,40.8674629 34.9333333,39.6512821 C34.9064412,37.8513866 35.6268699,36.1208722 36.9230769,34.8717949 C38.0592277,33.8715153 39.5122652,33.3048307 41.025641,33.2717949 C41.3668926,33.2424705 41.7100305,33.2424705 42.0512821,33.2717949 L42.0512821,35.1384615 Z M40.6769231,40.574359 C40.7849396,39.7689925 40.2872946,39.0058496 39.5067614,38.7799058 C38.7262282,38.553962 37.8978757,38.9332635 37.5589744,39.6717949 C37.505128,39.880341 37.505128,40.0991462 37.5589744,40.3076923 C37.5589744,41.4564103 38.1538462,42.4820513 39.3025641,42.4820513 C40.4512821,42.4820513 40.6769231,41.6615385 40.6769231,40.574359 L40.6769231,40.574359 Z" id="Shape" fill="#FFFFFF"></path>
                            <path d="M52.3692308,38.7076923 C52.3692308,42.0512821 51.0358974,44.3487179 48.2666667,44.3487179 C45.4974359,44.3487179 44.1641026,41.8461538 44.1641026,38.7692308 C44.1641026,35.6923077 45.4974359,33.1692308 48.2666667,33.1692308 C51.0358974,33.1692308 52.3692308,35.7333333 52.3692308,38.7076923 Z M46.7692308,38.7076923 C46.7692308,41.1897436 47.3435897,42.3794872 48.3282051,42.3794872 C49.3128205,42.3794872 49.8461538,41.1487179 49.8461538,38.6871795 C49.8461538,36.225641 49.3333333,35.0153846 48.3076923,35.0153846 C47.2820513,35.0153846 46.7487179,36.2666667 46.7692308,38.7692308 L46.7692308,38.7076923 Z" id="Shape" fill="#FFFFFF"></path>
                            <path d="M52.8615385,30.4 C52.0231985,30.4 51.3435897,31.0796088 51.3435897,31.9179487 C51.3435897,32.7562886 52.0231985,33.4358974 52.8615385,33.4358974 C53.6998784,33.4358974 54.3794872,32.7562886 54.3794872,31.9179487 C54.3794872,31.0796088 53.6998784,30.4 52.8615385,30.4 Z M52.8615385,32.8615385 C52.6095892,32.8672024 52.3662786,32.7696087 52.1880785,32.5914087 C52.0098785,32.4132086 51.9122848,32.1698979 51.9179487,31.9179487 C51.9179487,31.6676932 52.0173624,31.4276874 52.1943198,31.25073 C52.3712772,31.0737726 52.6112829,30.974359 52.8615385,30.974359 C53.3780956,30.9852375 53.7942497,31.4013916 53.8051282,31.9179487 C53.7831493,32.4229912 53.3670587,32.8209908 52.8615385,32.8205128 L52.8615385,32.8615385 Z" id="Shape" fill="#FFFFFF"></path>
                        </g>
                    </g>
                </g>
            </g>
        </g>
    </g>
</svg>