<?xml version="1.0" encoding="UTF-8"?>
<svg width="44px" height="64px" viewBox="0 0 44 64" version="1.1" xmlns="http://www.w3.org/2000/svg" xmlns:xlink="http://www.w3.org/1999/xlink">
    <!-- Generator: sketchtool 62 (101010) - https://sketch.com -->
    <title>BEE660E7-22AE-47B0-BB71-6EBBDB5EF416</title>
    <desc>Created with sketchtool.</desc>
    <g id="Page-1" stroke="none" stroke-width="1" fill="none" fill-rule="evenodd">
        <g id="01.-Attract-Screen----spacesuits" transform="translate(-378.000000, -698.000000)">
            <g id="global/button/touch-to-start" transform="translate(377.000000, 698.000000)">
                <g id="Group">
                    <g id="global-gesture-icons/hand/double-tap">
                        <g id="icon/hand/double-tap">
                            <g id="icon_hand_tap">
                                <g id="hand_8">
                                    <path d="M39.936,30.4512 C39.3746425,30.4903805 38.8201536,30.5978396 38.2848,30.7712 C38.1577652,29.0445979 37.0787812,27.5328327 35.4872153,26.8515025 C33.8956495,26.1701723 32.0570102,26.4329379 30.72,27.5328 C30.0458846,25.7114505 28.3100969,24.5015043 26.368,24.4992 C25.1718052,24.5148344 24.0095834,24.8992616 23.04,25.6 L23.04,25.1264 C28.9418089,22.9966059 32.4591134,16.9332557 31.3780486,10.7527484 C30.2969839,4.57224118 24.9303423,0.0628282968 18.656,0.0628282968 C12.3816577,0.0628282968 7.01501615,4.57224118 5.9339514,10.7527484 C4.85288665,16.9332557 8.3701911,22.9966059 14.272,25.1264 L14.272,41.6512 L10.432,37.6448 C8.31122656,35.5240266 4.87277344,35.5240266 2.752,37.6448 C0.631226561,39.7655734 0.631226561,43.2040266 2.752,45.3248 C2.752,45.3248 6.2464,49.1648 11.1744,54.144 L11.968,54.9504 C16.64,59.648 20.6848,63.7056 28.7616,63.7056 C37.12,63.7056 39.9232,59.5072 42.0608,55.2064 C44.1984,50.9056 44.1600462,35.2384 44.1600462,34.5728 C44.0106178,32.3144876 42.122306,30.5666751 39.8592,30.592 M7.8208,12.9152 C7.80445239,7.43989431 11.8414963,2.7971286 17.2660019,2.05283122 C22.6905075,1.30853383 27.8288786,4.6923392 29.2879055,9.96969461 C30.7469325,15.24705 28.0764688,20.7897588 23.04,22.9376 L23.04,20.7232 C26.6091056,18.757765 28.4027183,14.6317057 27.4052992,10.6811862 C26.4078801,6.73066661 22.8706073,3.95053838 18.7962755,3.91490282 C14.7219437,3.87926727 11.1365838,6.59709842 10.0702173,10.5295674 C9.00385076,14.4620363 10.7250186,18.6188371 14.2592,20.6464 L14.2592,22.8864 C10.3255543,21.1275446 7.7901039,17.2241537 7.7824,12.9152 M18.7136,8.6016 C17.445459,8.62893786 16.2450206,9.17924976 15.3966158,10.1221911 C14.548211,11.0651324 14.127308,12.3168257 14.2336,13.5808 L14.2336,18.24 C11.9761474,16.3561429 11.1483156,13.2556113 12.1663037,10.4972222 C13.1842917,7.73883322 15.8278377,5.91941931 18.7678775,5.95370549 C21.7079173,5.98799166 24.3083148,7.86855944 25.2616991,10.6499382 C26.2150835,13.431317 25.315171,16.5117001 23.0144,18.3424 L23.0144,13.568 C23.0144,10.5984 21.2864,8.6016 18.7008,8.6016 M21.0304,32.1152 C21.087797,32.619676 21.5146693,33.0007348 22.0224,33.0007348 C22.5301307,33.0007348 22.957003,32.619676 23.0144,32.1152 L23.0144,29.44 C23.0435632,28.599512 23.4132173,27.8070076 24.0384431,27.2445458 C24.6636689,26.682084 25.4907196,26.3980161 26.3296,26.4576 C27.0323176,26.4576 27.7062537,26.7367535 28.2031501,27.2336499 C28.7000465,27.7305463 28.9792,28.4044824 28.9792,29.1072 L28.9792,32.7552 C29.036597,33.259676 29.4634693,33.6407348 29.9712,33.6407348 C30.4789307,33.6407348 30.905803,33.259676 30.9632,32.7552 L30.9632,31.0912 C30.9632,29.6278663 32.1494663,28.4416 33.6128,28.4416 C35.0761337,28.4416 36.2624,29.6278663 36.2624,31.0912 L36.2624,35.392 C36.2190159,35.7733136 36.3980361,36.1457441 36.7229125,36.3500419 C37.0477888,36.5543397 37.4610112,36.5543397 37.7858875,36.3500419 C38.1107639,36.1457441 38.2897841,35.7733136 38.2464,35.392 L38.2464,32.832 C38.761559,32.5864573 39.3163772,32.4347493 39.8848,32.384 C41.0876016,32.3373469 42.1191813,33.2343727 42.24,34.432 C42.24,38.8736 41.8944,51.072 40.3584,54.1824 C38.3232,58.2272 36.0704,61.5808 28.8384,61.5808 C21.6064,61.5808 17.9968,57.9712 13.4784,53.4016 L12.672,52.5952 C7.7952,47.7056 4.3648,43.904 4.3008,43.8144 C3.6499085,43.1730334 3.28532181,42.2961793 3.28956277,41.3824 C3.29721909,40.4684892 3.66520937,39.5945123 4.3136,38.9504 C4.9470948,38.3034174 5.81451557,37.9389161 6.72,37.9392 C7.62039661,37.9391911 8.48469943,38.2931874 9.1264,38.9248 L14.6432,44.7232 C14.9257694,45.0146462 15.3566694,45.1059903 15.7331854,44.95426 C16.1097013,44.8025297 16.3568652,44.4379359 16.3584,44.032 L16.256,13.5936 C16.256,12.224 16.9088,10.5984 18.816,10.5984 C20.9792,10.5984 21.1456,12.8768 21.1456,13.568 L21.0304,32.1152 Z" id="Shape" fill="#FFFFFF" fill-rule="nonzero"></path>
                                    <path d="M21.0816,32.1152 C21.138997,32.619676 21.5658693,33.0007348 22.0736,33.0007348 C22.5813307,33.0007348 23.008203,32.619676 23.0656,32.1152 L23.0656,29.44 C23.0947632,28.599512 23.4644173,27.8070076 24.0896431,27.2445458 C24.7148689,26.682084 25.5419196,26.3980161 26.3808,26.4576 C27.0835176,26.4576 27.7574537,26.7367535 28.2543501,27.2336499 C28.7512465,27.7305463 29.0304,28.4044824 29.0304,29.1072 L29.0304,32.7552 C29.087797,33.259676 29.5146693,33.6407348 30.0224,33.6407348 C30.5301307,33.6407348 30.957003,33.259676 31.0144,32.7552 L31.0144,31.0912 C31.0144,29.6278663 32.2006663,28.4416 33.664,28.4416 C35.1273337,28.4416 36.3136,29.6278663 36.3136,31.0912 L36.3136,35.392 C36.2702159,35.7733136 36.4492361,36.1457441 36.7741125,36.3500419 C37.0989888,36.5543397 37.5122112,36.5543397 37.8370875,36.3500419 C38.1619639,36.1457441 38.3409841,35.7733136 38.2976,35.392 L38.2976,32.832 C38.812759,32.5864573 39.3675772,32.4347493 39.936,32.384 C41.119349,32.3646514 42.1204777,33.2545435 42.24,34.432 C42.24,38.8736 41.8944,51.072 40.3584,54.1824 C38.3232,58.2272 36.0704,61.5808 28.8384,61.5808 C21.6064,61.5808 17.9968,57.9712 13.4784,53.4016 L12.672,52.5952 C7.7952,47.7056 4.3648,43.904 4.3008,43.8144 C3.6499085,43.1730334 3.28532181,42.2961793 3.28956277,41.3824 C3.29721909,40.4684892 3.66520937,39.5945123 4.3136,38.9504 C4.9470948,38.3034174 5.81451557,37.9389161 6.72,37.9392 C7.62039661,37.9391911 8.48469943,38.2931874 9.1264,38.9248 L14.6432,44.7232 C14.9257694,45.0146462 15.3566694,45.1059903 15.7331854,44.95426 C16.1097013,44.8025297 16.3568652,44.4379359 16.3584,44.032 L16.256,13.5936 C16.256,12.224 16.9088,10.5984 18.816,10.5984 C20.9792,10.5984 21.1456,12.8768 21.1456,13.568 L21.0816,32.1152 Z" id="Path" fill="#FFFFFF" fill-rule="nonzero" opacity="0.2"></path>
                                    <rect id="Rectangle" x="3.264" y="10.5984" width="38.976" height="50.9696"></rect>
                                    <rect id="Rectangle" x="3.264" y="10.6112" width="38.976" height="50.9696"></rect>
                                    <rect id="Rectangle" x="1.28" y="0" width="42.9568" height="63.5648"></rect>
                                </g>
                            </g>
                        </g>
                    </g>
                </g>
            </g>
        </g>
    </g>
</svg>