<?xml version="1.0" encoding="UTF-8"?>
<svg width="50px" height="50px" viewBox="0 0 50 50" version="1.1" xmlns="http://www.w3.org/2000/svg" xmlns:xlink="http://www.w3.org/1999/xlink">
    <!-- Generator: sketchtool 63.1 (101010) - https://sketch.com -->
    <title>34D0EBC4-0178-4793-92D6-9C736AF5B19B</title>
    <desc>Created with sketchtool.</desc>
    <g id="Beta-1-version" stroke="none" stroke-width="1" fill="none" fill-rule="evenodd">
        <g id="03.Section_Intro" transform="translate(-1417.000000, -837.000000)" fill-rule="nonzero">
            <g id="360NAV" transform="translate(1336.000000, 836.000000)">
                <g id="L-R" transform="translate(106.000000, 106.000000) rotate(-270.000000) translate(-106.000000, -106.000000) translate(0.000000, 80.000000)">
                    <g id="global/button/next" transform="translate(26.000000, 25.500000) rotate(-180.000000) translate(-26.000000, -25.500000) translate(0.500000, -0.000000)">
                        <g id="global-icon/right-arrow-fill" transform="translate(0.500000, 0.500000)">
                            <g id="icon_right-arrow-fill">
                                <g>
                                    <path d="M24.5663547,49.1327095 C10.9987317,49.1327095 0,38.1339778 0,24.5663547 C0,10.9987317 10.9987317,0 24.5663547,0 C38.1339778,0 49.1327095,10.9987317 49.1327095,24.5663547 C49.118927,38.1282648 38.1282648,49.118927 24.5663547,49.1327095 Z M24.5663547,2.31286291 C12.2760906,2.31286291 2.31286291,12.2760906 2.31286291,24.5663547 C2.31286291,36.8566189 12.2760906,46.8198465 24.5663547,46.8198465 C36.8566189,46.8198465 46.8198465,36.8566189 46.8198465,24.5663547 C46.8129493,12.2789486 36.8537608,2.31976014 24.5663547,2.31286291 Z" id="Shape" fill="#FFFFFF"></path>
                                    <circle id="Oval" fill="#000000" opacity="0.65" cx="24.5663547" cy="24.5663547" r="22.2284879"></circle>
                                    <polygon id="Path" fill="#FFFFFF" points="25.4789979 17.8903072 23.7162213 19.5280642 27.729351 23.3036566 16.7526287 23.3036566 16.7526287 25.8290529 27.6668412 25.8290529 23.7162213 29.6046453 25.4789979 31.2424023 32.5301043 24.5163469"></polygon>
                                </g>
                            </g>
                        </g>
                    </g>
                </g>
            </g>
        </g>
    </g>
</svg>