<?xml version="1.0" encoding="UTF-8"?>
<svg width="250px" height="75px" viewBox="0 0 250 75" version="1.1" xmlns="http://www.w3.org/2000/svg" xmlns:xlink="http://www.w3.org/1999/xlink">
    <title>94A80EB7-2BA4-4114-87CC-9644CCF0D52C</title>
    <g id="Beta-1-version" stroke="none" stroke-width="1" fill="none" fill-rule="evenodd" opacity="0.598207">
        <g id="01.Attract" transform="translate(-119.000000, -925.000000)" fill="#E9AE00">
            <g id="fui_bars" transform="translate(119.250000, 925.000000)">
                <polygon id="Fill-1" points="7.38181818 36.1559091 17.175 36.1559091 17.175 9.07863636 7.38181818 9.07863636"></polygon>
                <polygon id="Fill-2" points="19.2136364 36.1559091 29.0068182 36.1559091 29.0068182 9.07863636 19.2136364 9.07863636"></polygon>
                <polygon id="Fill-3" points="31.0477273 36.1559091 33.4727273 36.1559091 33.4727273 9.07863636 31.0477273 9.07863636"></polygon>
                <polygon id="Fill-4" points="35.5159091 36.1559091 37.9409091 36.1559091 37.9409091 9.07863636 35.5159091 9.07863636"></polygon>
                <polygon id="Fill-5" points="39.9795455 36.1559091 42.4045455 36.1559091 42.4045455 9.07863636 39.9795455 9.07863636"></polygon>
                <polygon id="Fill-6" points="44.4454545 36.1559091 68.1409091 36.1559091 68.1409091 9.07863636 44.4454545 9.07863636"></polygon>
                <polygon id="Fill-7" points="70.1818182 36.1559091 86.1931818 36.1559091 86.1931818 9.07863636 70.1818182 9.07863636"></polygon>
                <polygon id="Fill-8" points="88.2340909 36.1559091 94.0045455 36.1559091 94.0045455 9.07863636 88.2340909 9.07863636"></polygon>
                <polygon id="Fill-9" points="96.0431818 36.1559091 97.4454545 36.1559091 97.4454545 9.08090909 96.0431818 9.08090909"></polygon>
                <polygon id="Fill-10" points="99.4840909 36.1559091 100.886364 36.1559091 100.886364 9.08090909 99.4840909 9.08090909"></polygon>
                <polygon id="Fill-11" points="102.925 36.1559091 106.231818 36.1559091 106.231818 9.07863636 102.925 9.07863636"></polygon>
                <polygon id="Fill-12" points="108.272727 36.1559091 109.927273 36.1559091 109.927273 9.08090909 108.272727 9.08090909"></polygon>
                <polygon id="Fill-13" points="111.965909 36.1559091 116.379545 36.1559091 116.379545 9.07863636 111.965909 9.07863636"></polygon>
                <polygon id="Fill-14" points="118.420455 36.1559091 132.590909 36.1559091 132.590909 9.07863636 118.420455 9.07863636"></polygon>
                <polygon id="Fill-15" points="134.631818 36.1559091 175.45 36.1559091 175.45 9.07863636 134.631818 9.07863636"></polygon>
                <polygon id="Fill-16" points="177.488636 36.1559091 179.295455 36.1559091 179.295455 9.08090909 177.488636 9.08090909"></polygon>
                <polygon id="Fill-17" points="181.334091 36.1559091 184.615909 36.1559091 184.615909 9.07863636 181.334091 9.07863636"></polygon>
                <polygon id="Fill-18" points="0 40.865 83.2909091 40.865 83.2909091 40.1831818 0 40.1831818"></polygon>
                <polygon id="Fill-19" points="49.475 44.0536364 132.763636 44.0536364 132.763636 43.3718182 49.475 43.3718182"></polygon>
                <polygon id="Fill-20" points="164.852273 40.865 248.138636 40.865 248.138636 40.1831818 164.852273 40.1831818"></polygon>
                <polygon id="Fill-21" points="120.929545 5.04909091 204.218182 5.04909091 204.218182 4.365 120.929545 4.365"></polygon>
                <polygon id="Fill-22" points="21.2886364 5.04909091 104.579545 5.04909091 104.579545 4.365 21.2886364 4.365"></polygon>
                <polygon id="Fill-23" points="36.5431818 1.95363636 119.831818 1.95363636 119.831818 1.27181818 36.5431818 1.27181818"></polygon>
                <polygon id="Fill-24" points="25.8636364 74.0922727 43.7522727 74.0922727 43.7522727 56.2059091 25.8636364 56.2059091"></polygon>
                <polygon id="Fill-26" points="46.45 74.0922727 64.3363636 74.0922727 64.3363636 56.2059091 46.45 56.2059091"></polygon>
                <g id="Group-38" transform="translate(67.000000, 56.092273)">
                    <polygon id="Fill-29" points="20.6159091 18 38.5045455 18 38.5045455 0.111363636 20.6159091 0.111363636"></polygon>
                    <polygon id="Fill-32" points="41.2 18 59.0886364 18 59.0886364 0.111363636 41.2 0.111363636"></polygon>
                    <polygon id="Fill-34" points="61.7818182 18 79.6704545 18 79.6704545 0.111363636 61.7818182 0.111363636"></polygon>
                    <polygon id="Fill-36" points="0.0318181818 18 17.9204545 18 17.9204545 0.111363636 0.0318181818 0.111363636"></polygon>
                    <polygon id="Fill-37" points="7.95681818 15.5272727 10 15.5272727 10 13.3090909 7.95681818 13.3090909"></polygon>
                </g>
            </g>
        </g>
    </g>
</svg>