<?xml version="1.0" encoding="UTF-8"?>
<svg width="50px" height="50px" viewBox="0 0 50 50" version="1.1" xmlns="http://www.w3.org/2000/svg" xmlns:xlink="http://www.w3.org/1999/xlink">
    <!-- Generator: sketchtool 62 (101010) - https://sketch.com -->
    <title>D3472551-6136-4849-922F-6602566AF191</title>
    <desc>Created with sketchtool.</desc>
    <g id="April-1-2020" stroke="none" stroke-width="1" fill="none" fill-rule="evenodd">
        <g id="Destination-Moon" transform="translate(-98.000000, -409.000000)">
            <g id="global/button/start_over" transform="translate(98.000000, 408.000000)">
                <g id="Group-6">
                    <g id="Group-3" transform="translate(0.000000, 0.506667)" fill="#FFFFFF">
                        <path d="M49.9991379,25.4933333 C49.9991379,39.3005691 38.8050026,50.4933333 25.0000212,50.4933333 C11.1915068,50.4933333 -0.000862068965,39.3005691 -0.000862068965,25.4933333 C-0.000862068965,11.6860976 11.1915068,0.493333333 25.0000212,0.493333333 C38.8050026,0.493333333 49.9991379,11.6860976 49.9991379,25.4933333" id="Fill-1"></path>
                    </g>
                    <path d="M38.2018966,22.2986667 C36.3415517,17.137 31.6018966,13.767 26.3277586,13.1853333 L26.3277586,16.4036667 C30.2294828,16.9603333 33.6932759,19.507 35.0777586,23.3503333 C37.0691379,28.8686667 34.045,34.9236667 28.3363793,36.847 C22.6277586,38.7703333 16.3656897,35.847 14.3760345,30.3286667 C12.7760345,25.897 14.4432759,21.1503333 18.107069,18.4453333 L18.107069,22.957 L21.4156897,22.957 L21.4156897,13.0753333 L11.195,13.0753333 L11.195,16.272 L15.5915517,16.272 C11.1708621,19.847 9.245,25.8153333 11.2518966,31.3803333 C13.8432759,38.5636667 21.9967241,42.3703333 29.4243103,39.867 C36.8553448,37.362 40.7932759,29.4803333 38.2018966,22.2986667" id="Fill-4" fill="#231F20"></path>
                </g>
            </g>
        </g>
    </g>
</svg>